PathFileType	4	(X/Y/Z)	 s06c0202.trc
DataRate	CameraRate	NumFrames	NumMarkers	Units	OrigDataRate	OrigDataStartFrame	OrigNumFrames
200	200	4	48	mm	200	1	2000
Frame#	Time	racr			lacr			c7			jug			rlel			rdr			llel			ldr			s2			lic			ric			lasi			rasi			rpsi			lpsi			rgt			lgt			rth1			rth2			rth3			rth4			rlfc			rmfc			rsh1			rsh2			rsh3			rsh4			rlmal			rcal			rtoe			rmt5			lth1			lth2			lth4			lth3			llfc			lmfc			llmal			lcal			lmt5			lsh1			lsh2			lsh3			lsh4			ltoe			SBIKE			LBIKE			RBIKE			
		X1	Y1	Z1	X2	Y2	Z2	X3	Y3	Z3	X4	Y4	Z4	X5	Y5	Z5	X6	Y6	Z6	X7	Y7	Z7	X8	Y8	Z8	X9	Y9	Z9	X10	Y10	Z10	X11	Y11	Z11	X12	Y12	Z12	X13	Y13	Z13	X14	Y14	Z14	X15	Y15	Z15	X16	Y16	Z16	X17	Y17	Z17	X18	Y18	Z18	X19	Y19	Z19	X20	Y20	Z20	X21	Y21	Z21	X22	Y22	Z22	X23	Y23	Z23	X24	Y24	Z24	X25	Y25	Z25	X26	Y26	Z26	X27	Y27	Z27	X28	Y28	Z28	X29	Y29	Z29	X30	Y30	Z30	X31	Y31	Z31	X32	Y32	Z32	X33	Y33	Z33	X34	Y34	Z34	X35	Y35	Z35	X36	Y36	Z36	X37	Y37	Z37	X38	Y38	Z38	X39	Y39	Z39	X40	Y40	Z40	X41	Y41	Z41	X42	Y42	Z42	X43	Y43	Z43	X44	Y44	Z44	X45	Y45	Z45	X46	Y46	Z46	X47	Y47	Z47	X48	Y48	Z48	
1	0.0050	448.396286	1308.884347	-49.226090	470.536914	1316.761444	-386.363722	453.023757	1424.444929	-214.436352	474.589396	1269.346561	-212.000080	472.260953	1048.128099	40.093603	666.920675	925.121784	-39.728073	466.771692	1048.519728	-464.401944	667.284018	927.963187	-399.432869	-34.542245	1147.632447	-219.893905	151.664273	1096.400779	-380.863538	119.195462	1106.807051	-40.030127	152.553130	1031.704741	-347.644358	137.081892	1048.674144	-70.856256	-0.103679	1180.381963	-184.202898	2.571030	1179.767935	-245.728478	76.327399	1056.968170	-7.133872	103.188160	1035.747136	-408.976736	175.386853	985.415696	-8.741138	262.517562	959.913684	-11.715224	321.733607	896.489107	-14.321799	278.309242	988.916173	-30.051710	387.359759	811.793073	-35.582525	389.510417	787.150687	-146.132745	355.700219	693.770874	-10.821058	353.741238	608.183172	-31.540964	311.760194	532.177950	-36.423963	376.397538	606.759287	-63.852268	284.672908	452.821879	-43.026794	219.975819	435.578122	-93.854673	487.057947	366.978689	-99.131917	389.845477	362.861173	-27.438758	147.014939	927.831440	-415.346532	216.760866	877.351560	-409.599531	244.799867	898.651967	-396.865330	252.449883	794.516845	-404.962091	281.099124	686.035703	-379.115119	280.405061	667.156699	-262.405066	28.782981	416.792241	-377.547724	-44.541374	436.889768	-333.031800	80.564980	282.343728	-398.964898	214.151230	604.559887	-403.058585	173.112015	529.638615	-385.840341	97.986937	481.254932	-386.487763	192.071713	516.435511	-354.352210	150.223504	233.619917	-338.674848	-203.356346	868.177806	-206.905219	-49.500666	84.011249	-414.294185	-48.936560	79.629009	-16.871110	
2	0.0100	448.451476	1308.898408	-49.203916	470.547007	1316.781342	-386.363311	453.021266	1424.456027	-214.419510	474.641999	1269.367620	-212.022679	472.275401	1048.130518	40.173530	666.905066	925.118791	-39.676646	466.790054	1048.553148	-464.438281	667.274304	927.976069	-399.447192	-34.506765	1147.655801	-219.927205	151.719751	1096.401227	-380.876839	119.220036	1106.794442	-40.041526	152.574885	1031.691903	-347.660915	137.075345	1048.647439	-70.859109	-0.079580	1180.416041	-184.243637	2.562690	1179.773850	-245.747526	76.357744	1057.034604	-7.176696	103.220497	1035.748777	-408.975925	175.298100	985.284665	-9.262102	262.552817	959.970804	-11.690333	321.777156	896.587493	-14.296758	278.335820	989.003138	-29.970746	387.387085	811.909310	-35.547389	389.530088	787.222634	-146.125550	355.772378	693.887833	-10.809531	353.797073	608.368376	-31.585682	311.756485	532.274951	-36.410271	376.401691	606.830068	-63.834004	284.652558	452.913510	-43.008315	219.971752	435.661722	-93.838619	487.031125	367.032680	-99.110622	389.831239	362.949870	-27.422943	147.023381	927.820970	-415.352398	216.760560	877.356546	-409.601092	244.818623	898.660798	-396.862812	252.447290	794.492210	-404.945073	281.117005	685.990278	-379.070840	280.427961	667.160645	-262.378190	28.846250	416.721324	-377.533401	-44.463685	436.827219	-333.026140	80.599664	282.260162	-398.945811	214.216215	604.522926	-403.053268	173.300040	529.494436	-385.872688	98.059377	481.188580	-386.471162	192.219962	516.557929	-354.325495	150.235202	233.533679	-338.696873	-203.358330	868.184381	-206.893043	-49.492906	84.001369	-414.288885	-48.939276	79.642425	-16.856580	
3	0.0150	448.480201	1308.892186	-49.182603	470.563478	1316.810392	-386.376026	453.018987	1424.490736	-214.412539	474.664029	1269.384783	-211.990266	472.270658	1048.144494	40.237346	666.895556	925.113510	-39.637877	466.775032	1048.577774	-464.500291	667.263283	927.967700	-399.463006	-34.490753	1147.660961	-219.957464	151.777306	1096.390914	-380.883497	119.214228	1106.834777	-40.048796	152.606406	1031.679019	-347.689482	137.081225	1048.691697	-70.867008	-0.115841	1180.435055	-184.256693	2.581152	1179.788235	-245.760061	76.388309	1057.083642	-7.189830	103.258629	1035.740170	-409.001925	175.300161	985.337810	-9.259820	262.557336	960.035257	-11.663121	321.793112	896.666808	-14.258239	278.364598	989.118808	-29.914304	387.424898	812.009087	-35.513479	389.555763	787.282838	-146.075603	355.791438	693.973797	-10.787557	353.806344	608.461199	-31.566375	311.769650	532.360843	-36.393615	376.420946	606.910509	-63.801171	284.640971	453.013371	-43.005627	219.964802	435.762439	-93.829485	487.027009	367.122937	-99.113385	389.818926	363.014483	-27.422021	147.029632	927.805798	-415.345232	216.772248	877.339046	-409.611669	244.832318	898.641404	-396.879877	252.440905	794.490150	-404.927131	281.132406	685.971824	-379.045979	280.451329	667.169060	-262.349497	28.904402	416.645927	-377.530851	-44.391442	436.760931	-333.020563	80.629316	282.183157	-398.959199	214.249504	604.479953	-403.033164	173.354172	529.444795	-385.868381	98.110532	481.123610	-386.476389	192.237970	516.464503	-354.288805	150.249451	233.389529	-338.680890	-203.365367	868.181504	-206.891546	-49.509245	84.022563	-414.297949	-48.935075	79.641359	-16.846425	
4	0.0200	449.244524	1308.871481	-48.998539	470.578069	1316.825915	-386.394075	453.021905	1424.510859	-214.411830	474.693186	1269.390637	-212.010677	472.331533	1048.462771	40.688261	666.878587	925.107656	-39.567188	466.761274	1048.597304	-464.557985	667.286991	927.921436	-399.501833	-35.240325	1148.467185	-217.702061	150.825039	1095.392962	-380.815383	119.138208	1106.717483	-40.043580	152.642341	1031.667670	-347.724018	136.945672	1048.546045	-70.842727	-0.046674	1180.424196	-184.299058	2.598119	1179.789657	-245.791709	76.415476	1057.119029	-7.201292	103.322301	1035.783366	-409.051207	175.361729	985.453279	-8.932498	262.567384	960.112361	-11.633044	321.245292	896.945238	-13.616669	278.488228	989.132484	-29.857355	388.162674	811.837579	-35.279112	389.701786	787.380771	-146.028565	355.728630	694.026689	-10.702745	353.512819	608.488772	-31.849463	311.514813	532.572022	-36.565409	376.649966	606.824536	-63.811341	284.666029	453.047399	-42.949236	219.958627	435.880517	-93.812201	486.992649	367.105526	-98.915939	389.809859	363.087499	-27.434630	147.038743	927.805205	-415.365763	217.039534	876.518386	-409.251213	244.801441	898.529378	-396.724771	252.439067	794.459480	-404.908360	281.134941	685.943358	-379.029639	280.450861	667.141252	-262.331417	28.967263	416.581562	-377.524287	-44.335500	436.709331	-333.017094	80.666930	282.057709	-398.965410	214.441265	604.360305	-403.089177	173.366354	529.262603	-385.952637	97.929176	481.355101	-386.838790	192.284567	516.418463	-354.257130	150.256367	233.294667	-338.684401	-203.414424	868.080724	-206.966709	-49.505812	84.009572	-414.285500	-48.948629	79.640234	-16.856294	
